<svg t="1784798257074" class="icon" viewBox="0 0 1030 1024" version="1.1" xmlns="http://www.w3.org/2000/svg" width="200" height="200"><path d="M998.716049 954.469136l-82.172839-82.17284c18.962963-31.604938 37.925926-69.530864 37.925926-107.45679V632.098765 379.259259 309.728395v-25.283951c0-25.283951 0-44.246914-12.641976-69.530864-18.962963-31.604938-56.888889-56.888889-88.493827-56.888889-18.962963 0-31.604938 6.320988-44.246913 12.641976 6.320988 0 0-37.925926 0-37.925926 0-12.641975-6.320988-25.283951-18.962963-37.925926-18.962963-25.283951-50.567901-44.246914-82.17284-44.246914-18.962963 0-31.604938 6.320988-44.246913 12.641976-31.604938-44.246914-69.530864-63.209877-107.45679-63.209877-44.246914 0-75.851852 31.604938-94.814815 50.567901-18.962963-12.641975-44.246914-18.962963-63.209877-18.962963-50.567901 0-107.45679 37.925926-120.098765 88.493827-6.320988 18.962963-6.320988 37.925926-6.320988 50.567902v56.888889c0-6.320988-12.641975-12.641975-18.962963-18.962963L233.876543 189.62963l-18.962963-18.962963-50.567901-50.567902L75.851852 31.604938 56.888889 12.641975C44.246914 0 25.283951 0 12.641975 12.641975S0 44.246914 12.641975 56.888889L271.802469 316.049383v189.629629L195.950617 442.469136c-25.283951-18.962963-63.209877-44.246914-94.814815-37.925926-50.567901 6.320988-94.814815 63.209877-88.493827 113.777778 0 18.962963 12.641975 37.925926 25.283951 56.888889 6.320988 18.962963 18.962963 37.925926 25.283951 56.888888 37.925926 63.209877 82.17284 132.740741 120.098765 195.950618 18.962963 25.283951 31.604938 56.888889 56.888889 82.172839C309.728395 992.395062 442.469136 1011.358025 549.925926 1011.358025c75.851852 0 139.061728-6.320988 176.987654-12.641976 50.567901-6.320988 107.45679-37.925926 151.703704-75.851851l37.925926 37.925925 25.28395 25.283951c12.641975 12.641975 25.283951 18.962963 37.925926 18.962963 37.925926 6.320988 37.925926-31.604938 18.962963-50.567901z m-448.790123-884.938272c18.962963 0 50.567901 12.641975 50.567901 31.604938V505.679012c0 18.962963 12.641975 31.604938 31.604938 31.604939s31.604938-12.641975 31.604939-31.604939V139.061728c0-12.641975 25.283951-25.283951 44.246913-25.28395 12.641975 0 37.925926 12.641975 37.925926 25.28395v360.296297c0 18.962963 12.641975 31.604938 31.604938 31.604938s31.604938-12.641975 31.604939-31.604938v-252.839506c0-12.641975 25.283951-25.283951 44.246913-25.283951 12.641975 0 37.925926 12.641975 37.925926 25.283951v518.320987c0 18.962963-6.320988 44.246914-18.962963 63.209877L499.358025 455.111111V94.814815c0-12.641975 31.604938-25.283951 50.567901-25.283951z m-214.91358 63.209877c0-25.283951 31.604938-31.604938 50.567901-31.604939 12.641975 0 44.246914 6.320988 44.246913 25.283951v271.802469L335.012346 290.765432V132.740741z m379.259259 802.765432c-151.703704 25.283951-347.654321 25.283951-423.506173-63.209877-18.962963-18.962963-139.061728-221.234568-221.234568-347.654321-12.641975-12.641975 18.962963-50.567901 31.604938-56.888889s31.604938 6.320988 56.888889 25.283951l126.419753 113.777778c12.641975 6.320988 25.283951 6.320988 31.604939 0 12.641975-6.320988 18.962963-18.962963 18.962963-31.604938V379.259259l101.135802 101.135803v18.962963c0 18.962963 12.641975 31.604938 31.604938 31.604938h12.641976l347.654321 347.654321c-31.604938 25.283951-75.851852 50.567901-113.777778 56.888889z"></path></svg>