<svg t="1784815320817" class="icon" viewBox="0 0 1024 1024" version="1.1" xmlns="http://www.w3.org/2000/svg" width="200" height="200"><path d="M512 962c-60.74 0-119.67-11.9-175.17-35.38-53.59-22.67-101.71-55.11-143.03-96.43-41.32-41.32-73.76-89.44-96.43-143.03C73.9 631.67 62 572.74 62 512s11.9-119.67 35.38-175.17c22.67-53.59 55.11-101.71 96.43-143.03s89.44-73.76 143.03-96.43C392.33 73.9 451.26 62 512 62s119.67 11.9 175.17 35.38c53.59 22.67 101.71 55.11 143.03 96.43 41.32 41.32 73.76 89.44 96.43 143.03C950.1 392.33 962 451.26 962 512s-11.9 119.67-35.38 175.17c-22.67 53.59-55.11 101.71-96.43 143.03-41.32 41.32-89.44 73.76-143.03 96.43C631.67 950.1 572.74 962 512 962z m0-836c-52.12 0-102.67 10.2-150.24 30.32-45.96 19.44-87.24 47.28-122.7 82.74-35.46 35.46-63.3 76.74-82.74 122.7C136.2 409.33 126 459.88 126 512c0 52.12 10.2 102.67 30.32 150.24 19.44 45.96 47.28 87.24 82.74 122.7 35.46 35.46 76.74 63.3 122.7 82.74C409.33 887.8 459.88 898 512 898c52.12 0 102.67-10.2 150.24-30.32 45.96-19.44 87.24-47.28 122.7-82.74s63.3-76.74 82.74-122.7C887.8 614.67 898 564.12 898 512c0-52.12-10.2-102.67-30.32-150.24-19.44-45.96-47.28-87.24-82.74-122.7-35.46-35.46-76.74-63.3-122.7-82.74C614.67 136.2 564.12 126 512 126z"></path><path d="M525.27 829.13c-10.45 0-20.88-0.41-31.09-1.26-75.6-6.25-107.74-32.38-121.4-53.2-23.43-35.74-67.23-114.52-133.91-240.84-11.63-22.25-20.62-54.69 2.42-83.33 8.13-10.11 19.1-16.06 31.74-17.21 13.56-1.23 28.31 3.05 45.07 13.11 13.11 7.87 25.37 18.04 33.45 25.01 7.16 6.18 15.07 14.26 23.82 24.34V325.6c0-22.65 4.65-42.46 13.43-57.29 11.09-18.72 28.23-29.03 48.26-29.03 7.36 0 16.1 1.36 25.27 5.69 2.13-6.2 4.77-12.11 7.87-17.51 12.4-21.58 30.97-33.46 52.3-33.46 29.34 0 46.32 26.3 53.84 41.97 0.51 1.07 1.01 2.15 1.5 3.25 8.43-5.76 18.4-9.28 29.86-9.31h0.15c13.07 0 25.08 5.09 34.74 14.73 15 14.95 21.05 37.68 22.79 53.68 5.61-1.8 11.55-2.73 17.72-2.73 19.55 0 35.64 10.55 44.15 28.95 5.21 11.27 7.75 25.26 7.75 42.77v315.54c0 20.33-9.43 46.87-24.62 69.28-13.68 20.18-38.71 47.25-80.28 61.64-28.58 9.9-66.8 15.36-104.83 15.36z m-114.02-79.68c11.03 16.82 43.45 29 86.72 32.58 40.81 3.37 86.77-1.23 117.08-11.72 55.75-19.3 73.95-71.6 73.95-87.45V367.32c0-17.15-3.43-24.27-4.79-25.64-0.17-0.04-0.52-0.09-1.1-0.09-8.26 0-17.15 10.3-17.15 32.91v148.59c0 12.7-10.3 23-23 23s-23-10.3-23-23V308.12c0-9.98-4.04-25.12-9.85-30.91-1.31-1.31-1.84-1.31-2.28-1.3-7.82 0.02-17.44 17.78-17.44 32.21v214.97c0 12.7-10.3 23-23 23s-23-10.3-23-23V293.5c0-8.81-3.28-24.57-9.54-37.64C529.07 243.8 523.54 240 522.5 240c-9.91 0-20.38 21.54-20.38 41.91V517c0 12.7-10.3 23-23 23s-23-10.3-23-23V299.92c-6.37-9.72-12.76-14.64-19.04-14.64-8.8 0-15.7 17.71-15.7 40.32v237.68c0 10.01-6.48 18.88-16.02 21.92a22.995 22.995 0 0 1-25.74-8.62c-24.45-34.5-44-58.16-58.11-70.34-31-26.74-42.24-27.3-44.15-27.16-0.06 0.06-0.13 0.14-0.21 0.25-2.69 3.35-9 11.19 2.46 33.1 65.02 123.22 109.33 202.99 131.64 237.02z"></path><path d="M173.09 284.155l38.688-50.982L866.225 729.8l-38.688 50.982z"></path></svg>