<svg t="1784704405132" class="icon" viewBox="0 0 1024 1024" version="1.1" xmlns="http://www.w3.org/2000/svg" p-id="14078" width="200" height="200"><path d="M975.494737 404.210526l-177.852632-264.08421c26.947368-32.336842 21.557895-80.842105-10.778947-107.789474-32.336842-26.947368-75.452632-21.557895-102.4 10.778947-26.947368 32.336842-21.557895 80.842105 10.778947 107.789474 0 5.389474 5.389474 5.389474 16.168421 10.778948l-26.947368 172.463157c-5.389474 21.557895-21.557895 32.336842-37.726316 26.947369l-334.147368-53.894737c5.389474-26.947368-5.389474-53.894737-26.947369-70.063158-37.726316-21.557895-86.231579-16.168421-107.789473 16.168421-26.947368 32.336842-21.557895 75.452632 5.389473 102.4 21.557895 16.168421 48.505263 21.557895 70.063158 16.168421l107.789474 317.978948c5.389474 16.168421-5.389474 37.726316-21.557895 43.115789l-161.68421 59.284211-16.168421-16.168421c-32.336842-26.947368-80.842105-21.557895-102.4 10.778947-26.947368 32.336842-21.557895 80.842105 10.778947 102.4 32.336842 26.947368 80.842105 21.557895 102.4-10.778947l291.031579 134.736842c21.557895 10.778947 43.115789 0 48.505263-21.557895 43.115789-107.789474 102.4-210.189474 177.852632-301.810526 75.452632-91.621053 167.073684-167.073684 269.473684-226.357895 21.557895-16.168421 26.947368-43.115789 16.168421-59.284211" fill="#FFCF44" p-id="14079"></path></svg>