<svg t="1784604805300" class="icon" viewBox="0 0 1024 1024" version="1.1" xmlns="http://www.w3.org/2000/svg" p-id="12159" width="200" height="200"><path d="M475.201334 120.096766a44.734378 44.734378 0 0 1 33.91877 33.918771l12.15956 54.974007a404.209347 404.209347 0 0 0 306.804878 306.740881l54.910009 12.159559a44.734378 44.734378 0 0 1 0 87.420831l-54.846011 12.031564a404.209347 404.209347 0 0 0-306.740881 306.932874l-12.287555 54.910009a44.734378 44.734378 0 0 1-87.228838 0l-12.287554-55.038005a404.209347 404.209347 0 0 0-306.676883-306.548887L48.016819 615.566806a44.734378 44.734378 0 0 1 0-87.356834l54.91001-12.287554A404.209347 404.209347 0 0 0 409.603712 209.053542l12.287554-54.91001a44.734378 44.734378 0 0 1 53.310068-33.91877v-0.127996z m-9.727647 218.23209l-1.407949 3.135886a500.397861 500.397861 0 0 1-228.727709 228.535715l-3.135886 1.535945 3.199884 1.535944a500.397861 500.397861 0 0 1 228.663711 228.599713l1.343951 3.007891 1.599942-3.007891a500.397861 500.397861 0 0 1 228.599713-228.727708l3.007891-1.407949-3.007891-1.471947a500.397861 500.397861 0 0 1-228.727708-228.663711l-1.407949-3.071888zM825.588632 0.101116c30.462896-1.983928 16.127415 71.357413 63.229708 117.051757 47.16629 45.694344 120.571629 29.822919 122.427562 62.717727 1.727937 32.894808-74.877286 27.263012-114.74784 70.077459-39.934552 43.070439-31.230868 107.004121-63.99768 108.540066-32.574819 1.599942-14.463476-64.957645-66.301597-109.820019-51.902119-44.926371-113.595882-32.318828-113.595882-64.317669 0-31.99884 67.58155-13.24752 112.891908-61.821759 45.630346-48.254251 29.630926-120.507632 60.157819-122.491559v0.063997z" p-id="12160"></path></svg>